<svg xmlns="http://www.w3.org/2000/svg" xmlns:xlink="http://www.w3.org/1999/xlink" contentStyleType="text/css" data-diagram-type="SEQUENCE" height="727px" preserveAspectRatio="none" style="width:875px;height:727px;background:#FFFFFF;" version="1.1" viewBox="0 0 875 727" width="875px" zoomAndPan="magnify"><?plantuml 1.2026.3?><defs/><g><g class="title" data-source-line="2"><text fill="#383939" font-family="Lato" font-size="16" font-weight="700" lengthAdjust="spacing" textLength="237.1649" x="315.7135" y="30.7918">Run analysis &#8212; sequence diagram</text></g><g><title>WorkflowJob</title><rect fill="#FFFFFF" height="163.2011" style="stroke:#181818;stroke-width:1;" width="10" x="445.9496" y="323.4011"/></g><g><title>Workflow</title><rect fill="#FFFFFF" height="108.8008" style="stroke:#181818;stroke-width:1;" width="10" x="542.3336" y="350.6013"/></g><rect fill="#FFFFFF" height="303.2019" style="stroke:#8A8B8B;stroke-width:1.5;" width="752.6886" x="106.9034" y="231.6005"/><g class="participant-lifeline" data-entity-uid="part1" data-qualified-name="Analyst" data-source-line="3" id="part1-lifeline"><g><title>Analyst</title><rect fill="#000000" fill-opacity="0.00000" height="524.8034" width="8" x="25.2875" y="120.7998"/><line style="stroke:#8A8B8B;stroke-width:0.5;stroke-dasharray:5,5;" x1="29" x2="29" y1="120.7998" y2="645.6032"/></g></g><g class="participant-lifeline" data-entity-uid="part2" data-qualified-name="tree" data-source-line="4" id="part2-lifeline"><g><title>Tree Panel</title><rect fill="#000000" fill-opacity="0.00000" height="524.8034" width="8" x="150.3625" y="120.7998"/><line style="stroke:#8A8B8B;stroke-width:0.5;stroke-dasharray:5,5;" x1="153.9034" x2="153.9034" y1="120.7998" y2="645.6032"/></g></g><g class="participant-lifeline" data-entity-uid="part3" data-qualified-name="mgr" data-source-line="5" id="part3-lifeline"><g><title>WorkflowQueueManager</title><rect fill="#000000" fill-opacity="0.00000" height="524.8034" width="8" x="287.9061" y="120.7998"/><line style="stroke:#8A8B8B;stroke-width:0.5;stroke-dasharray:5,5;" x1="291.6023" x2="291.6023" y1="120.7998" y2="645.6032"/></g></g><g class="participant-lifeline" data-entity-uid="part4" data-qualified-name="job" data-source-line="6" id="part4-lifeline"><g><title>WorkflowJob</title><rect fill="#000000" fill-opacity="0.00000" height="524.8034" width="8" x="446.9496" y="120.7998"/><line style="stroke:#8A8B8B;stroke-width:0.5;stroke-dasharray:5,5;" x1="450.19" x2="450.19" y1="120.7998" y2="645.6032"/></g></g><g class="participant-lifeline" data-entity-uid="part5" data-qualified-name="wf" data-source-line="7" id="part5-lifeline"><g><title>Workflow</title><rect fill="#000000" fill-opacity="0.00000" height="524.8034" width="8" x="543.3336" y="120.7998"/><line style="stroke:#8A8B8B;stroke-width:0.5;stroke-dasharray:5,5;" x1="546.7091" x2="546.7091" y1="120.7998" y2="645.6032"/></g></g><g class="participant-lifeline" data-entity-uid="part6" data-qualified-name="gpkg" data-source-line="8" id="part6-lifeline"><g><title>study_area.gpkg</title><rect fill="#000000" fill-opacity="0.00000" height="524.8034" width="8" x="690.5744" y="120.7998"/><line style="stroke:#8A8B8B;stroke-width:0.5;stroke-dasharray:5,5;" x1="694.3333" x2="694.3333" y1="120.7998" y2="645.6032"/></g></g><g class="participant-lifeline" data-entity-uid="part7" data-qualified-name="fs" data-source-line="9" id="part7-lifeline"><g><title>Working dir</title><rect fill="#000000" fill-opacity="0.00000" height="524.8034" width="8" x="797.7037" y="120.7998"/><line style="stroke:#8A8B8B;stroke-width:0.5;stroke-dasharray:5,5;" x1="800.8154" x2="800.8154" y1="120.7998" y2="645.6032"/></g></g><g class="participant participant-head" data-entity-uid="part1" data-qualified-name="Analyst" data-source-line="3" id="part1-head"><text fill="#383939" font-family="Lato" font-size="13" lengthAdjust="spacing" textLength="42.575" x="5" y="118.0308">Analyst</text><ellipse cx="29.2875" cy="53.6998" fill="#F5F5F2" rx="8" ry="8" style="stroke:#383939;stroke-width:0.5;"/><path d="M29.2875,61.6998 L29.2875,88.6998 M16.2875,69.6998 L42.2875,69.6998 M29.2875,88.6998 L16.2875,103.6998 M29.2875,88.6998 L42.2875,103.6998" fill="none" style="stroke:#383939;stroke-width:0.5;"/></g><g class="participant participant-tail" data-entity-uid="part1" data-qualified-name="Analyst" data-source-line="3" id="part1-tail"><text fill="#383939" font-family="Lato" font-size="13" lengthAdjust="spacing" textLength="42.575" x="5" y="657.4342">Analyst</text><ellipse cx="29.2875" cy="668.7032" fill="#F5F5F2" rx="8" ry="8" style="stroke:#383939;stroke-width:0.5;"/><path d="M29.2875,676.7032 L29.2875,703.7032 M16.2875,684.7032 L42.2875,684.7032 M29.2875,703.7032 L16.2875,718.7032 M29.2875,703.7032 L42.2875,718.7032" fill="none" style="stroke:#383939;stroke-width:0.5;"/></g><g class="participant participant-head" data-entity-uid="part2" data-qualified-name="tree" data-source-line="4" id="part2-head"><rect fill="#F5F5F2" height="29.6" rx="2.5" ry="2.5" style="stroke:#8A8B8B;stroke-width:0.5;" width="74.9181" x="116.9034" y="90.1998"/><text fill="#383939" font-family="Lato" font-size="13" lengthAdjust="spacing" textLength="60.9181" x="123.9034" y="110.0308">Tree Panel</text></g><g class="participant participant-tail" data-entity-uid="part2" data-qualified-name="tree" data-source-line="4" id="part2-tail"><rect fill="#F5F5F2" height="29.6" rx="2.5" ry="2.5" style="stroke:#8A8B8B;stroke-width:0.5;" width="74.9181" x="116.9034" y="644.6032"/><text fill="#383939" font-family="Lato" font-size="13" lengthAdjust="spacing" textLength="60.9181" x="123.9034" y="664.4342">Tree Panel</text></g><g class="participant participant-head" data-entity-uid="part3" data-qualified-name="mgr" data-source-line="5" id="part3-head"><rect fill="#F5F5F2" height="29.6" rx="2.5" ry="2.5" style="stroke:#8A8B8B;stroke-width:0.5;" width="160.6077" x="211.6023" y="90.1998"/><text fill="#383939" font-family="Lato" font-size="13" lengthAdjust="spacing" textLength="146.6077" x="218.6023" y="110.0308">WorkflowQueueManager</text></g><g class="participant participant-tail" data-entity-uid="part3" data-qualified-name="mgr" data-source-line="5" id="part3-tail"><rect fill="#F5F5F2" height="29.6" rx="2.5" ry="2.5" style="stroke:#8A8B8B;stroke-width:0.5;" width="160.6077" x="211.6023" y="644.6032"/><text fill="#383939" font-family="Lato" font-size="13" lengthAdjust="spacing" textLength="146.6077" x="218.6023" y="664.4342">WorkflowQueueManager</text></g><g class="participant participant-head" data-entity-uid="part4" data-qualified-name="job" data-source-line="6" id="part4-head"><rect fill="#F5F5F2" height="45.2" rx="2.5" ry="2.5" style="stroke:#8A8B8B;stroke-width:0.5;" width="91.5191" x="405.19" y="74.5997"/><text fill="#383939" font-family="Lato" font-size="13" lengthAdjust="spacing" textLength="77.5191" x="412.19" y="94.4308">WorkflowJob</text><text fill="#383939" font-family="Lato" font-size="13" lengthAdjust="spacing" textLength="56.108" x="422.8955" y="110.0308">(QgsTask)</text></g><g class="participant participant-tail" data-entity-uid="part4" data-qualified-name="job" data-source-line="6" id="part4-tail"><rect fill="#F5F5F2" height="45.2" rx="2.5" ry="2.5" style="stroke:#8A8B8B;stroke-width:0.5;" width="91.5191" x="405.19" y="644.6032"/><text fill="#383939" font-family="Lato" font-size="13" lengthAdjust="spacing" textLength="77.5191" x="412.19" y="664.4342">WorkflowJob</text><text fill="#383939" font-family="Lato" font-size="13" lengthAdjust="spacing" textLength="56.108" x="422.8955" y="680.0342">(QgsTask)</text></g><g class="participant participant-head" data-entity-uid="part5" data-qualified-name="wf" data-source-line="7" id="part5-head"><rect fill="#F5F5F2" height="45.2" rx="2.5" ry="2.5" style="stroke:#8A8B8B;stroke-width:0.5;" width="81.2491" x="506.7091" y="74.5997"/><text fill="#383939" font-family="Lato" font-size="13" lengthAdjust="spacing" textLength="57.3755" x="518.6459" y="94.4308">Workflow</text><text fill="#383939" font-family="Lato" font-size="13" lengthAdjust="spacing" textLength="67.2491" x="513.7091" y="110.0308">(via factory)</text></g><g class="participant participant-tail" data-entity-uid="part5" data-qualified-name="wf" data-source-line="7" id="part5-tail"><rect fill="#F5F5F2" height="45.2" rx="2.5" ry="2.5" style="stroke:#8A8B8B;stroke-width:0.5;" width="81.2491" x="506.7091" y="644.6032"/><text fill="#383939" font-family="Lato" font-size="13" lengthAdjust="spacing" textLength="57.3755" x="518.6459" y="664.4342">Workflow</text><text fill="#383939" font-family="Lato" font-size="13" lengthAdjust="spacing" textLength="67.2491" x="513.7091" y="680.0342">(via factory)</text></g><g class="participant participant-head" data-entity-uid="part6" data-qualified-name="gpkg" data-source-line="8" id="part6-head"><text fill="#383939" font-family="Lato" font-size="13" lengthAdjust="spacing" textLength="92.4821" x="645.3333" y="118.0308">study_area.gpkg</text><path d="M676.5744,69.1998 C676.5744,59.1998 694.5744,59.1998 694.5744,59.1998 C694.5744,59.1998 712.5744,59.1998 712.5744,69.1998 L712.5744,95.1998 C712.5744,105.1998 694.5744,105.1998 694.5744,105.1998 C694.5744,105.1998 676.5744,105.1998 676.5744,95.1998 L676.5744,69.1998" fill="#FCF3E0" style="stroke:#EEB348;stroke-width:0.5;"/><path d="M676.5744,69.1998 C676.5744,79.1998 694.5744,79.1998 694.5744,79.1998 C694.5744,79.1998 712.5744,79.1998 712.5744,69.1998" fill="none" style="stroke:#EEB348;stroke-width:0.5;"/></g><g class="participant participant-tail" data-entity-uid="part6" data-qualified-name="gpkg" data-source-line="8" id="part6-tail"><text fill="#383939" font-family="Lato" font-size="13" lengthAdjust="spacing" textLength="92.4821" x="645.3333" y="657.4342">study_area.gpkg</text><path d="M676.5744,670.2032 C676.5744,660.2032 694.5744,660.2032 694.5744,660.2032 C694.5744,660.2032 712.5744,660.2032 712.5744,670.2032 L712.5744,696.2032 C712.5744,706.2032 694.5744,706.2032 694.5744,706.2032 C694.5744,706.2032 676.5744,706.2032 676.5744,696.2032 L676.5744,670.2032" fill="#FCF3E0" style="stroke:#EEB348;stroke-width:0.5;"/><path d="M676.5744,670.2032 C676.5744,680.2032 694.5744,680.2032 694.5744,680.2032 C694.5744,680.2032 712.5744,680.2032 712.5744,670.2032" fill="none" style="stroke:#EEB348;stroke-width:0.5;"/></g><g class="participant participant-head" data-entity-uid="part7" data-qualified-name="fs" data-source-line="9" id="part7-head"><rect fill="#F5F5F2" height="45.2" rx="2.5" ry="2.5" style="stroke:#8A8B8B;stroke-width:0.5;" width="95.7766" x="753.8154" y="74.5997"/><text fill="#383939" font-family="Lato" font-size="13" lengthAdjust="spacing" textLength="67.7626" x="767.8224" y="94.4308">Working dir</text><text fill="#383939" font-family="Lato" font-size="13" lengthAdjust="spacing" textLength="81.7766" x="760.8154" y="110.0308">(rasters/VRTs)</text></g><g class="participant participant-tail" data-entity-uid="part7" data-qualified-name="fs" data-source-line="9" id="part7-tail"><rect fill="#F5F5F2" height="45.2" rx="2.5" ry="2.5" style="stroke:#8A8B8B;stroke-width:0.5;" width="95.7766" x="753.8154" y="644.6032"/><text fill="#383939" font-family="Lato" font-size="13" lengthAdjust="spacing" textLength="67.7626" x="767.8224" y="664.4342">Working dir</text><text fill="#383939" font-family="Lato" font-size="13" lengthAdjust="spacing" textLength="81.7766" x="760.8154" y="680.0342">(rasters/VRTs)</text></g><g><title>WorkflowJob</title><rect fill="#FFFFFF" height="163.2011" style="stroke:#181818;stroke-width:1;" width="10" x="445.9496" y="323.4011"/></g><g><title>Workflow</title><rect fill="#FFFFFF" height="108.8008" style="stroke:#181818;stroke-width:1;" width="10" x="542.3336" y="350.6013"/></g><g class="message" data-entity-1="part1" data-entity-2="part2" data-source-line="11" id="msg1"><polygon fill="#383939" points="142.3625,146,152.3625,150,142.3625,154,146.3625,150" style="stroke:#383939;stroke-width:1;"/><line style="stroke:#383939;stroke-width:1;" x1="29.2875" x2="148.3625" y1="150" y2="150"/><text fill="#676869" font-family="Lato" font-size="11" lengthAdjust="spacing" textLength="83.7717" x="36.2875" y="145.6569">Run all / run item</text></g><g class="message" data-entity-1="part2" data-entity-2="part2" data-source-line="12" id="msg2"><line style="stroke:#383939;stroke-width:1;" x1="154.3625" x2="196.3625" y1="203.6005" y2="203.6005"/><line style="stroke:#383939;stroke-width:1;" x1="196.3625" x2="196.3625" y1="203.6005" y2="216.6005"/><line style="stroke:#383939;stroke-width:1;" x1="155.3625" x2="196.3625" y1="216.6005" y2="216.6005"/><polygon fill="#383939" points="165.3625,212.6005,155.3625,216.6005,165.3625,220.6005,161.3625,216.6005" style="stroke:#383939;stroke-width:1;"/><text fill="#676869" font-family="Lato" font-size="11" lengthAdjust="spacing" textLength="63.3224" x="161.3625" y="172.8571">queue stages</text><text fill="#676869" font-family="Lato" font-size="11" lengthAdjust="spacing" textLength="91.9448" x="161.3625" y="186.0573">[indicators, factors,</text><text fill="#676869" font-family="Lato" font-size="11" lengthAdjust="spacing" textLength="100.5194" x="161.3625" y="199.2575">dimensions, analysis]</text></g><path d="M106.9034,231.6005 L177.4549,231.6005 L177.4549,239.2005 L167.4549,249.2005 L106.9034,249.2005 L106.9034,231.6005" fill="#F5F5F2" style="stroke:#D1D1D1;stroke-width:1.5;"/><rect fill="none" height="303.2019" style="stroke:#8A8B8B;stroke-width:1.5;" width="752.6886" x="106.9034" y="231.6005"/><text fill="#383939" font-family="Lato" font-size="13" font-weight="700" lengthAdjust="spacing" textLength="25.5515" x="121.9034" y="245.4315">loop</text><text fill="#383939" font-family="Lato" font-size="13" font-weight="700" lengthAdjust="spacing" textLength="69.4005" x="192.4549" y="246.4315">[each stage]</text><g class="message" data-entity-1="part2" data-entity-2="part3" data-source-line="14" id="msg3"><polygon fill="#383939" points="279.9061,265.0007,289.9061,269.0007,279.9061,273.0007,283.9061,269.0007" style="stroke:#383939;stroke-width:1;"/><line style="stroke:#383939;stroke-width:1;" x1="154.3625" x2="285.9061" y1="269.0007" y2="269.0007"/><text fill="#676869" font-family="Lato" font-size="11" lengthAdjust="spacing" textLength="113.5437" x="161.3625" y="264.6577">add_workflow(item) &#215;N</text></g><g class="message" data-entity-1="part3" data-entity-2="part4" data-source-line="15" id="msg4"><polygon fill="#383939" points="438.9496,292.2009,448.9496,296.2009,438.9496,300.2009,442.9496,296.2009" style="stroke:#383939;stroke-width:1;"/><line style="stroke:#383939;stroke-width:1;" x1="291.9061" x2="444.9496" y1="296.2009" y2="296.2009"/><text fill="#676869" font-family="Lato" font-size="11" lengthAdjust="spacing" textLength="135.0434" x="298.9061" y="291.8579">create via WorkflowFactory</text></g><g class="message" data-entity-1="part3" data-entity-2="part4" data-source-line="16" id="msg5"><polygon fill="#383939" points="433.9496,319.4011,443.9496,323.4011,433.9496,327.4011,437.9496,323.4011" style="stroke:#383939;stroke-width:1;"/><line style="stroke:#383939;stroke-width:1;" x1="291.9061" x2="439.9496" y1="323.4011" y2="323.4011"/><text fill="#676869" font-family="Lato" font-size="11" lengthAdjust="spacing" textLength="115.2321" x="298.9061" y="319.0581">start (QgsTaskManager)</text></g><g class="message" data-entity-1="part4" data-entity-2="part5" data-source-line="18" id="msg6"><polygon fill="#383939" points="530.3336,346.6013,540.3336,350.6013,530.3336,354.6013,534.3336,350.6013" style="stroke:#383939;stroke-width:1;"/><line style="stroke:#383939;stroke-width:1;" x1="455.9496" x2="536.3336" y1="350.6013" y2="350.6013"/><text fill="#676869" font-family="Lato" font-size="11" lengthAdjust="spacing" textLength="44.1051" x="462.9496" y="346.2583">execute()</text></g><g class="message" data-entity-1="part5" data-entity-2="part6" data-source-line="20" id="msg7"><polygon fill="#383939" points="682.5744,373.8015,692.5744,377.8015,682.5744,381.8015,686.5744,377.8015" style="stroke:#383939;stroke-width:1;"/><line style="stroke:#383939;stroke-width:1;" x1="552.3336" x2="688.5744" y1="377.8015" y2="377.8015"/><text fill="#676869" font-family="Lato" font-size="11" lengthAdjust="spacing" textLength="78.8931" x="559.3336" y="373.4584">read grid / areas</text></g><g class="message" data-entity-1="part5" data-entity-2="part6" data-source-line="21" id="msg8"><polygon fill="#383939" points="682.5744,401.0017,692.5744,405.0017,682.5744,409.0017,686.5744,405.0017" style="stroke:#383939;stroke-width:1;"/><line style="stroke:#383939;stroke-width:1;" x1="552.3336" x2="688.5744" y1="405.0017" y2="405.0017"/><text fill="#676869" font-family="Lato" font-size="11" lengthAdjust="spacing" textLength="118.2407" x="559.3336" y="400.6586">write grid column scores</text></g><g class="message" data-entity-1="part5" data-entity-2="part7" data-source-line="22" id="msg9"><polygon fill="#383939" points="789.7037,428.2019,799.7037,432.2019,789.7037,436.2019,793.7037,432.2019" style="stroke:#383939;stroke-width:1;"/><line style="stroke:#383939;stroke-width:1;" x1="552.3336" x2="795.7037" y1="432.2019" y2="432.2019"/><text fill="#676869" font-family="Lato" font-size="11" lengthAdjust="spacing" textLength="74.2566" x="559.3336" y="427.8588">rasterize + VRT</text></g><g class="message" data-entity-1="part5" data-entity-2="part4" data-source-line="23" id="msg10"><polygon fill="#383939" points="466.9496,455.402,456.9496,459.402,466.9496,463.402,462.9496,459.402" style="stroke:#383939;stroke-width:1;"/><line style="stroke:#383939;stroke-width:1;stroke-dasharray:2,2;" x1="460.9496" x2="546.3336" y1="459.402" y2="459.402"/><text fill="#676869" font-family="Lato" font-size="11" lengthAdjust="spacing" textLength="36.735" x="472.9496" y="455.059">success</text></g><g class="message" data-entity-1="part4" data-entity-2="part2" data-source-line="25" id="msg11"><polygon fill="#383939" points="165.3625,482.6022,155.3625,486.6022,165.3625,490.6022,161.3625,486.6022" style="stroke:#383939;stroke-width:1;"/><line style="stroke:#383939;stroke-width:1;stroke-dasharray:2,2;" x1="159.3625" x2="449.9496" y1="486.6022" y2="486.6022"/><text fill="#676869" font-family="Lato" font-size="11" lengthAdjust="spacing" textLength="117.3936" x="171.3625" y="482.2592">status + progress signals</text></g><g class="message" data-entity-1="part2" data-entity-2="part2" data-source-line="27" id="msg12"><line style="stroke:#383939;stroke-width:1;" x1="154.3625" x2="196.3625" y1="513.8024" y2="513.8024"/><line style="stroke:#383939;stroke-width:1;" x1="196.3625" x2="196.3625" y1="513.8024" y2="526.8024"/><line style="stroke:#383939;stroke-width:1;" x1="155.3625" x2="196.3625" y1="526.8024" y2="526.8024"/><polygon fill="#383939" points="165.3625,522.8024,155.3625,526.8024,165.3625,530.8024,161.3625,526.8024" style="stroke:#383939;stroke-width:1;"/><text fill="#676869" font-family="Lato" font-size="11" lengthAdjust="spacing" textLength="113.5931" x="161.3625" y="509.4594">update icons / progress</text></g><g class="message" data-entity-1="part2" data-entity-2="part2" data-source-line="29" id="msg13"><line style="stroke:#383939;stroke-width:1;" x1="154.3625" x2="196.3625" y1="587.403" y2="587.403"/><line style="stroke:#383939;stroke-width:1;" x1="196.3625" x2="196.3625" y1="587.403" y2="600.403"/><line style="stroke:#383939;stroke-width:1;" x1="155.3625" x2="196.3625" y1="600.403" y2="600.403"/><polygon fill="#383939" points="165.3625,596.403,155.3625,600.403,165.3625,604.403,161.3625,600.403" style="stroke:#383939;stroke-width:1;"/><text fill="#676869" font-family="Lato" font-size="11" lengthAdjust="spacing" textLength="82.0777" x="161.3625" y="556.6596">calculate insights</text><text fill="#676869" font-family="Lato" font-size="11" lengthAdjust="spacing" textLength="92.0988" x="161.3625" y="569.8598">(population, masks,</text><text fill="#676869" font-family="Lato" font-size="11" lengthAdjust="spacing" textLength="118.3012" x="161.3625" y="583.06">subnational aggregation)</text></g><g class="message" data-entity-1="part2" data-entity-2="part1" data-source-line="30" id="msg14"><polygon fill="#383939" points="40.2875,623.6032,30.2875,627.6032,40.2875,631.6032,36.2875,627.6032" style="stroke:#383939;stroke-width:1;"/><line style="stroke:#383939;stroke-width:1;" x1="34.2875" x2="153.3625" y1="627.6032" y2="627.6032"/><text fill="#676869" font-family="Lato" font-size="11" lengthAdjust="spacing" textLength="101.075" x="46.2875" y="623.2601">results added to map</text></g><?plantuml-src RPB1RXCn48Rl-nH3Jea8xPq34XSEIA2sYk10K3MnPrqtNdlhiHlI4m-1n0Fn9Zm9O-zkeoozhUtFl-V__trblN9P4-mnfl245pPthaasEOARx04zkYDRXhy_Vm7JGoQl2BH54x5hKAKGuNrbKjEBX5MsHvzWiOb4S8MUt0AG8Sdo7FWQuhvruN2TATCdUSTGh6Xduilanx3R-kMruGtoVbNP-x1xcHNmqIAqTSBZ01_QHcF27JB1WbFMnrkCX1UctviAb8__vQmtOZYAOaHE5Fdooys61ycMcsQq3s_ULPVmTWZEERY4A5ysKTVKanFnK4m39p7DM__DUcqLogIy7aVczLRsEl9iWvVTgOVlZGkX1q9rDrnl02Pj2KwaKUlRmvZ2ihozWZ-_FmjMZeMIo8HIOZmHb8oco3uCMSr9UIKcc68VYre99RXzB2Ab1AYqN3gqSeT-aCg9bcUOn0_bMA0Ij60oWmOJhPQaIXCy1mvH30o42Yvt7bY5I2UkvI9JQx5F1Az1gXaFJmQoKiJbZgRpOUh8frB4QSei8dqCHbvXO6iazzdLmUwiqDphScQLj2Lk9eM6l9vthz2fx2ejxPgx97_0iWzzsPEorz19pgL_pZjVjz016j4pTRLw5fp-l98aPvUub4yQKX2D_Xy0?></g></svg>
