<svg xmlns="http://www.w3.org/2000/svg" xmlns:xlink="http://www.w3.org/1999/xlink" contentStyleType="text/css" data-diagram-type="ACTIVITY" height="938px" preserveAspectRatio="none" style="width:691px;height:938px;background:#FFFFFF;" version="1.1" viewBox="0 0 691 938" width="691px" zoomAndPan="magnify"><?plantuml 1.2026.3?><defs/><g><g class="title" data-source-line="2"><text fill="#383939" font-family="Lato" font-size="16" font-weight="700" lengthAdjust="spacing" textLength="346.1716" x="171.4767" y="35.7918">Aggregation pyramid &#8212; indicator to GeoE3 score</text></g><ellipse cx="343.5625" cy="65.1998" fill="#222222" rx="10" ry="10" style="stroke:#222222;stroke-width:1;"/><rect fill="#FFFFFF" height="114.4001" style="stroke:#D1D1D1;stroke-width:1.5;" width="229.7027" x="228.7111" y="85.1998"/><path d="M319.3372,85.1998 L319.3372,93.7998 L309.3372,103.7998 L228.7111,103.7998" fill="none" style="stroke:#D1D1D1;stroke-width:1.5;"/><text fill="#383939" font-family="Lato" font-size="13" lengthAdjust="spacing" textLength="80.6261" x="231.7111" y="99.0308">Indicator level</text><rect fill="#EAF3FA" height="66.8" rx="12.5" ry="12.5" style="stroke:#54A2CC;stroke-width:0.5;" width="209.7027" x="238.7111" y="120.7998"/><text fill="#383939" font-family="Lato" font-size="13" lengthAdjust="spacing" textLength="186.7517" x="248.7111" y="143.6308">Each indicator workflow writes a</text><text fill="#383939" font-family="Lato" font-size="13" lengthAdjust="spacing" textLength="189.7027" x="248.7111" y="159.2308">0-5 score into its study_area_grid</text><text fill="#383939" font-family="Lato" font-size="13" lengthAdjust="spacing" textLength="135.1677" x="248.7111" y="174.8308">column and rasterizes it</text><rect fill="#FFFFFF" height="114.4001" style="stroke:#D1D1D1;stroke-width:1.5;" width="224.3987" x="231.3631" y="209.5998"/><path d="M308.0467,209.5998 L308.0467,218.1998 L298.0467,228.1998 L231.3631,228.1998" fill="none" style="stroke:#D1D1D1;stroke-width:1.5;"/><text fill="#383939" font-family="Lato" font-size="13" lengthAdjust="spacing" textLength="66.6836" x="234.3631" y="223.4308">Factor level</text><rect fill="#EAF3FA" height="66.8" rx="12.5" ry="12.5" style="stroke:#54A2CC;stroke-width:0.5;" width="204.3987" x="241.3631" y="245.1998"/><text fill="#383939" font-family="Lato" font-size="13" lengthAdjust="spacing" textLength="166.9527" x="251.3631" y="268.0308">FactorAggregationWorkflow:</text><text fill="#383939" font-family="Lato" font-size="13" lengthAdjust="spacing" textLength="184.3987" x="251.3631" y="283.6308">fac_&lt;id&gt; = &#931; (factor_weighting &#215;</text><text fill="#383939" font-family="Lato" font-size="13" lengthAdjust="spacing" textLength="98.8456" x="251.3631" y="299.2309">indicator column)</text><rect fill="#FFFFFF" height="114.4001" style="stroke:#D1D1D1;stroke-width:1.5;" width="252.8623" x="217.1313" y="333.9999"/><path d="M318.2225,333.9999 L318.2225,342.5999 L308.2225,352.5999 L217.1313,352.5999" fill="none" style="stroke:#D1D1D1;stroke-width:1.5;"/><text fill="#383939" font-family="Lato" font-size="13" lengthAdjust="spacing" textLength="91.0911" x="220.1313" y="347.8309">Dimension level</text><rect fill="#EAF3FA" height="66.8" rx="12.5" ry="12.5" style="stroke:#54A2CC;stroke-width:0.5;" width="232.8623" x="227.1313" y="369.5999"/><text fill="#383939" font-family="Lato" font-size="13" lengthAdjust="spacing" textLength="191.3602" x="237.1313" y="392.4309">DimensionAggregationWorkflow:</text><text fill="#383939" font-family="Lato" font-size="13" lengthAdjust="spacing" textLength="212.8623" x="237.1313" y="408.0309">dim_&lt;id&gt; = &#931; (dimension_weighting &#215;</text><text fill="#383939" font-family="Lato" font-size="13" lengthAdjust="spacing" textLength="82.6281" x="237.1313" y="423.6309">factor column)</text><rect fill="#FFFFFF" height="170.0001" style="stroke:#D1D1D1;stroke-width:1.5;" width="237.9902" x="224.5674" y="458.3999"/><path d="M311.131,458.3999 L311.131,466.9999 L301.131,476.9999 L224.5674,476.9999" fill="none" style="stroke:#D1D1D1;stroke-width:1.5;"/><text fill="#383939" font-family="Lato" font-size="13" lengthAdjust="spacing" textLength="76.5636" x="227.5674" y="472.2309">Analysis level</text><rect fill="#EAF3FA" height="66.8" rx="12.5" ry="12.5" style="stroke:#54A2CC;stroke-width:0.5;" width="201.4607" x="242.8321" y="493.9999"/><text fill="#383939" font-family="Lato" font-size="13" lengthAdjust="spacing" textLength="176.8327" x="252.8321" y="516.8309">AnalysisAggregationWorkflow:</text><text fill="#383939" font-family="Lato" font-size="13" lengthAdjust="spacing" textLength="181.4607" x="252.8321" y="532.431">geoe3 = &#931; (analysis_weighting &#215;</text><text fill="#383939" font-family="Lato" font-size="13" lengthAdjust="spacing" textLength="107.2241" x="252.8321" y="548.031">dimension column)</text><rect fill="#EAF3FA" height="35.6" rx="12.5" ry="12.5" style="stroke:#54A2CC;stroke-width:0.5;" width="217.9902" x="234.5674" y="580.8"/><text fill="#383939" font-family="Lato" font-size="13" lengthAdjust="spacing" textLength="197.9902" x="244.5674" y="603.631">Rasterize + build geoe3_score VRT</text><rect fill="#FFFFFF" height="237.6001" style="stroke:#D1D1D1;stroke-width:1.5;" width="655.125" x="16" y="638.4"/><path d="M117.1496,638.4 L117.1496,647 L107.1496,657 L16,657" fill="none" style="stroke:#D1D1D1;stroke-width:1.5;"/><text fill="#383939" font-family="Lato" font-size="13" lengthAdjust="spacing" textLength="91.1496" x="19" y="652.231">Post-processing</text><rect fill="#383939" height="6" rx="2.5" ry="2.5" style="stroke:#383939;stroke-width:1;" width="635.125" x="26" y="674"/><rect fill="#EAF3FA" height="66.8" rx="12.5" ry="12.5" style="stroke:#54A2CC;stroke-width:0.5;" width="178.6976" x="38" y="700"/><text fill="#383939" font-family="Lato" font-size="13" lengthAdjust="spacing" textLength="114.6211" x="48" y="722.831">GeoE3 &#215; Population</text><text fill="#383939" font-family="Lato" font-size="13" lengthAdjust="spacing" textLength="158.6976" x="48" y="738.431">((geoe3 &#8722; 1) &#215; 3 + pop class,</text><text fill="#383939" font-family="Lato" font-size="13" lengthAdjust="spacing" textLength="61.3665" x="48" y="754.031">15 classes)</text><rect fill="#EAF3FA" height="51.2" rx="12.5" ry="12.5" style="stroke:#54A2CC;stroke-width:0.5;" width="192.4322" x="244.6976" y="707.8"/><text fill="#383939" font-family="Lato" font-size="13" lengthAdjust="spacing" textLength="112.3526" x="254.6976" y="730.631">Opportunities mask</text><text fill="#383939" font-family="Lato" font-size="13" lengthAdjust="spacing" textLength="172.4322" x="254.6976" y="746.231">(binary job-opportunity zones)</text><rect fill="#EAF3FA" height="35.6" rx="12.5" ry="12.5" style="stroke:#54A2CC;stroke-width:0.5;" width="183.9951" x="465.1299" y="715.6"/><text fill="#383939" font-family="Lato" font-size="13" lengthAdjust="spacing" textLength="163.9951" x="475.1299" y="738.431">GHSL-masked score variants</text><rect fill="#383939" height="6" rx="2.5" ry="2.5" style="stroke:#383939;stroke-width:1;" width="635.125" x="26" y="786.8"/><rect fill="#EAF3FA" height="51.2" rx="12.5" ry="12.5" style="stroke:#54A2CC;stroke-width:0.5;" width="196.0332" x="245.5459" y="812.8"/><text fill="#383939" font-family="Lato" font-size="13" lengthAdjust="spacing" textLength="137.7612" x="255.5459" y="835.6311">Subnational aggregation</text><text fill="#383939" font-family="Lato" font-size="13" lengthAdjust="spacing" textLength="176.0332" x="255.5459" y="851.2311">(zonal statistics per admin unit)</text><ellipse cx="343.5625" cy="907.0001" fill="none" rx="11" ry="11" style="stroke:#222222;stroke-width:1;"/><ellipse cx="343.5625" cy="907.0001" fill="#222222" rx="6" ry="6" style="stroke:#222222;stroke-width:1;"/><line style="stroke:#383939;stroke-width:1;" x1="343.5625" x2="343.5625" y1="75.1998" y2="120.7998"/><polygon fill="#383939" points="339.5625,110.7998,343.5625,120.7998,347.5625,110.7998,343.5625,114.7998" style="stroke:#383939;stroke-width:1;"/><line style="stroke:#383939;stroke-width:1;" x1="343.5625" x2="343.5625" y1="187.5998" y2="245.1998"/><polygon fill="#383939" points="339.5625,235.1998,343.5625,245.1998,347.5625,235.1998,343.5625,239.1998" style="stroke:#383939;stroke-width:1;"/><line style="stroke:#383939;stroke-width:1;" x1="343.5625" x2="343.5625" y1="311.9999" y2="369.5999"/><polygon fill="#383939" points="339.5625,359.5999,343.5625,369.5999,347.5625,359.5999,343.5625,363.5999" style="stroke:#383939;stroke-width:1;"/><line style="stroke:#383939;stroke-width:1;" x1="343.5625" x2="343.5625" y1="560.8" y2="580.8"/><polygon fill="#383939" points="339.5625,570.8,343.5625,580.8,347.5625,570.8,343.5625,574.8" style="stroke:#383939;stroke-width:1;"/><line style="stroke:#383939;stroke-width:1;" x1="343.5625" x2="343.5625" y1="436.3999" y2="493.9999"/><polygon fill="#383939" points="339.5625,483.9999,343.5625,493.9999,347.5625,483.9999,343.5625,487.9999" style="stroke:#383939;stroke-width:1;"/><line style="stroke:#383939;stroke-width:1;" x1="127.3488" x2="127.3488" y1="680" y2="700"/><polygon fill="#383939" points="123.3488,690,127.3488,700,131.3488,690,127.3488,694" style="stroke:#383939;stroke-width:1;"/><line style="stroke:#383939;stroke-width:1;" x1="340.9137" x2="340.9137" y1="680" y2="707.8"/><polygon fill="#383939" points="336.9137,697.8,340.9137,707.8,344.9137,697.8,340.9137,701.8" style="stroke:#383939;stroke-width:1;"/><line style="stroke:#383939;stroke-width:1;" x1="557.1274" x2="557.1274" y1="680" y2="715.6"/><polygon fill="#383939" points="553.1274,705.6,557.1274,715.6,561.1274,705.6,557.1274,709.6" style="stroke:#383939;stroke-width:1;"/><line style="stroke:#383939;stroke-width:1;" x1="127.3488" x2="127.3488" y1="766.8" y2="786.8"/><polygon fill="#383939" points="123.3488,776.8,127.3488,786.8,131.3488,776.8,127.3488,780.8" style="stroke:#383939;stroke-width:1;"/><line style="stroke:#383939;stroke-width:1;" x1="340.9137" x2="340.9137" y1="759" y2="786.8"/><polygon fill="#383939" points="336.9137,776.8,340.9137,786.8,344.9137,776.8,340.9137,780.8" style="stroke:#383939;stroke-width:1;"/><line style="stroke:#383939;stroke-width:1;" x1="557.1274" x2="557.1274" y1="751.2" y2="786.8"/><polygon fill="#383939" points="553.1274,776.8,557.1274,786.8,561.1274,776.8,557.1274,780.8" style="stroke:#383939;stroke-width:1;"/><line style="stroke:#383939;stroke-width:1;" x1="343.5625" x2="343.5625" y1="792.8" y2="812.8"/><polygon fill="#383939" points="339.5625,802.8,343.5625,812.8,347.5625,802.8,343.5625,806.8" style="stroke:#383939;stroke-width:1;"/><line style="stroke:#383939;stroke-width:1;" x1="343.5625" x2="343.5625" y1="616.4" y2="674"/><polygon fill="#383939" points="339.5625,664,343.5625,674,347.5625,664,343.5625,668" style="stroke:#383939;stroke-width:1;"/><line style="stroke:#383939;stroke-width:1;" x1="343.5625" x2="343.5625" y1="864.0001" y2="896.0001"/><polygon fill="#383939" points="339.5625,886.0001,343.5625,896.0001,347.5625,886.0001,343.5625,890.0001" style="stroke:#383939;stroke-width:1;"/><?plantuml-src TPFFRjGm4CRlUOgXfrImY6hLo_97gaGfI4XKBO9ZD6jxqw6E7NcShh88YIFd2gaFmAFqpaFqIPZ4sNI9j9Vy6N_-Vf_jyHDooZRQm3M6w3Vud9hAPf6YDN1Ibi6K6CaxgDk05Mbu-FaRo6bI67s0wE7C-DCviFB1P1p59AlbGVsaWm-ZqfeROm_WUmQmE4LrjMEozk5wPVqQre6YOK3Hl9WT9q_H2OGY0yT6jmK6WqKPI8j8UTjK3j1f2CZH1Dh8T8elin-x8TwXcYP8fPtrVHqoB6HqXQfuHVeDl8Q_Vo1VzTfYRQYyYkHAkByJqMFybE9m0drBbN7SVUvon-eUjAPg5wstyYazPTg3Fd5eMoR-ZxmjxW6NnflvGCL1EeMEQHwvOdontNbu2ik6h4vUHJgzBnUV9-dEFSTP7Rmop6ATugqaYhp4BhNJ_HsS-xgnVSv-8CzJn8TVjt1qs0dc0gnz3SeYyxDUT7IS_WptsJfNm18fMIm-rRKFiN6IHFgaGaxCV4aEGmlV_7BcHqaB6-_s69szl_muw-ORFNJf3GP25xbJ6-d7OK6BosRf-aMW5ODnwsKet_H5kJAHE99Yg4q0r1KvwFZzgNBqzJy0?></g></svg>
