<svg xmlns="http://www.w3.org/2000/svg" xmlns:xlink="http://www.w3.org/1999/xlink" contentStyleType="text/css" data-diagram-type="STATE" height="662px" preserveAspectRatio="none" style="width:445px;height:662px;background:#FFFFFF;" version="1.1" viewBox="0 0 445 662" width="445px" zoomAndPan="magnify"><?plantuml 1.2026.3?><defs/><g><g class="title" data-source-line="2"><text fill="#383939" font-family="Lato" font-size="16" font-weight="700" lengthAdjust="spacing" textLength="307.604" x="65.5715" y="25.7918">Tree item workflow status &#8212; state machine</text></g><g class="start_entity" data-qualified-name=".start." data-source-line="3" id="ent0002"><ellipse cx="303.39" cy="56.1998" fill="#222222" rx="10" ry="10" style="stroke:#222222;stroke-width:1;"/></g><g class="entity" data-qualified-name="NotRun" id="ent0003"><rect fill="#EAF3FA" height="50" rx="12.5" ry="12.5" style="stroke:#54A2CC;stroke-width:0.5;" width="64.603" x="271.08" y="127.1998"/><line style="stroke:#54A2CC;stroke-width:0.5;" x1="271.08" x2="335.683" y1="152.7998" y2="152.7998"/><text fill="#383939" font-family="Lato" font-size="13" lengthAdjust="spacing" textLength="44.603" x="281.08" y="145.0308">NotRun</text></g><g class="entity" data-qualified-name="Queued" id="ent0005"><rect fill="#EAF3FA" height="50" rx="12.5" ry="12.5" style="stroke:#54A2CC;stroke-width:0.5;" width="65.9096" x="148.43" y="265.1998"/><line style="stroke:#54A2CC;stroke-width:0.5;" x1="148.43" x2="214.3396" y1="290.7998" y2="290.7998"/><text fill="#383939" font-family="Lato" font-size="13" lengthAdjust="spacing" textLength="45.9096" x="158.43" y="283.0308">Queued</text></g><g class="entity" data-qualified-name="Running" id="ent0007"><rect fill="#EAF3FA" height="50" rx="12.5" ry="12.5" style="stroke:#54A2CC;stroke-width:0.5;" width="67.0341" x="147.87" y="390.1998"/><line style="stroke:#54A2CC;stroke-width:0.5;" x1="147.87" x2="214.9041" y1="415.7998" y2="415.7998"/><text fill="#383939" font-family="Lato" font-size="13" lengthAdjust="spacing" textLength="47.0341" x="157.87" y="408.0308">Running</text></g><g class="entity" data-qualified-name="Completed" id="ent0009"><rect fill="#EAF3FA" height="50" rx="12.5" ry="12.5" style="stroke:#54A2CC;stroke-width:0.5;" width="82.7706" x="7" y="515.1998"/><line style="stroke:#54A2CC;stroke-width:0.5;" x1="7" x2="89.7706" y1="540.7998" y2="540.7998"/><text fill="#383939" font-family="Lato" font-size="13" lengthAdjust="spacing" textLength="62.7706" x="17" y="533.0308">Completed</text></g><g class="entity" data-qualified-name="Failed" id="ent0011"><rect fill="#EAF3FA" height="50" rx="12.5" ry="12.5" style="stroke:#54A2CC;stroke-width:0.5;" width="54.1445" x="224.31" y="515.1998"/><line style="stroke:#54A2CC;stroke-width:0.5;" x1="224.31" x2="278.4545" y1="540.7998" y2="540.7998"/><text fill="#383939" font-family="Lato" font-size="13" lengthAdjust="spacing" textLength="34.1445" x="234.31" y="533.0308">Failed</text></g><g class="entity" data-qualified-name="Excluded" id="ent0015"><rect fill="#EAF3FA" height="50" rx="12.5" ry="12.5" style="stroke:#54A2CC;stroke-width:0.5;" width="71.9286" x="314.42" y="265.1998"/><line style="stroke:#54A2CC;stroke-width:0.5;" x1="314.42" x2="386.3486" y1="290.7998" y2="290.7998"/><text fill="#383939" font-family="Lato" font-size="13" lengthAdjust="spacing" textLength="51.9286" x="324.42" y="283.0308">Excluded</text></g><g class="end_entity" data-qualified-name=".end." data-source-line="12" id="ent0018"><ellipse cx="48.39" cy="637.1998" fill="none" rx="11" ry="11" style="stroke:#222222;stroke-width:1;"/><ellipse cx="48.39" cy="637.1998" fill="#222222" rx="6" ry="6" style="stroke:#222222;stroke-width:1;"/></g><!--link *start* to NotRun--><g class="link" data-entity-1="ent0002" data-entity-2="ent0003" data-link-type="dependency" data-source-line="3" id="lnk4"><path d="M303.39,66.5598 C303.39,80.4898 303.39,101.1498 303.39,120.8498" fill="none" id="*start*-to-NotRun" style="stroke:#383939;stroke-width:1;"/><polygon fill="#383939" points="303.39,126.8498,307.39,117.8498,303.39,121.8498,299.39,117.8498,303.39,126.8498" style="stroke:#383939;stroke-width:1;"/></g><!--link NotRun to Queued--><g class="link" data-entity-1="ent0003" data-entity-2="ent0005" data-link-type="dependency" data-source-line="4" id="lnk6"><path d="M270.64,162.6098 C247.92,170.7898 218.74,184.9098 201.39,207.1998 C188.51,223.7298 184.3449,241.4064 182.6749,259.0664" fill="none" id="NotRun-to-Queued" style="stroke:#383939;stroke-width:1;"/><polygon fill="#383939" points="182.11,265.0398,186.9395,256.4563,182.5807,260.062,178.9751,255.7031,182.11,265.0398" style="stroke:#383939;stroke-width:1;"/><text fill="#676869" font-family="Lato" font-size="11" lengthAdjust="spacing" textLength="80.8842" x="202.39" y="225.5569">run all / run item</text></g><!--link Queued to Running--><g class="link" data-entity-1="ent0005" data-entity-2="ent0007" data-link-type="dependency" data-source-line="5" id="lnk8"><path d="M181.39,315.4998 C181.39,337.0598 181.39,362.3998 181.39,383.9498" fill="none" id="Queued-to-Running" style="stroke:#383939;stroke-width:1;"/><polygon fill="#383939" points="181.39,389.9498,185.39,380.9498,181.39,384.9498,177.39,380.9498,181.39,389.9498" style="stroke:#383939;stroke-width:1;"/><text fill="#676869" font-family="Lato" font-size="11" lengthAdjust="spacing" textLength="62.4094" x="182.39" y="357.0569">task slot free</text></g><!--link Running to Completed--><g class="link" data-entity-1="ent0007" data-entity-2="ent0009" data-link-type="dependency" data-source-line="6" id="lnk10"><path d="M147.52,434.7898 C131.92,444.2398 113.74,456.5998 99.39,470.1998 C85.43,483.4098 75.905,495.8287 66.605,509.8587" fill="none" id="Running-to-Completed" style="stroke:#383939;stroke-width:1;"/><polygon fill="#383939" points="63.29,514.8598,71.5966,509.5682,66.0525,510.6922,64.9285,505.1481,63.29,514.8598" style="stroke:#383939;stroke-width:1;"/><text fill="#676869" font-family="Lato" font-size="11" lengthAdjust="spacing" textLength="92.5553" x="100.39" y="482.0569">workflow succeeds</text></g><!--link Running to Failed--><g class="link" data-entity-1="ent0007" data-entity-2="ent0011" data-link-type="dependency" data-source-line="7" id="lnk12"><path d="M188.94,440.6398 C193.63,454.2198 200.29,471.1598 208.39,485.1998 C214.31,495.4798 218.2718,501.2432 225.5818,510.1432" fill="none" id="Running-to-Failed" style="stroke:#383939;stroke-width:1;"/><polygon fill="#383939" points="229.39,514.7798,226.7687,505.2861,226.2165,510.916,220.5867,510.3638,229.39,514.7798" style="stroke:#383939;stroke-width:1;"/><text fill="#676869" font-family="Lato" font-size="11" lengthAdjust="spacing" textLength="55.7158" x="209.39" y="482.0569">error raised</text></g><!--link Failed to Queued--><g class="link" data-entity-1="ent0011" data-entity-2="ent0005" data-link-type="dependency" data-source-line="8" id="lnk13"><path d="M261.34,514.8898 C264.59,505.7398 267.77,495.1498 269.39,485.1998 C279.42,423.3798 284.9,399.3198 253.39,345.1998 C244.34,329.6698 233.9712,320.4065 219.6912,311.3765" fill="none" id="Failed-to-Queued" style="stroke:#383939;stroke-width:1;"/><polygon fill="#383939" points="214.62,308.1698,220.0889,316.3607,218.846,310.8421,224.3646,309.5991,214.62,308.1698" style="stroke:#383939;stroke-width:1;"/><text fill="#676869" font-family="Lato" font-size="11" lengthAdjust="spacing" textLength="30.1734" x="278.22" y="419.5569">re-run</text></g><!--link Completed to Queued--><g class="link" data-entity-1="ent0009" data-entity-2="ent0005" data-link-type="dependency" data-source-line="9" id="lnk14"><path d="M40.43,514.9198 C31.82,484.0598 21.86,430.0098 42.39,390.1998 C64.44,347.4098 109.0306,321.4944 142.6506,306.4944" fill="none" id="Completed-to-Queued" style="stroke:#383939;stroke-width:1;"/><polygon fill="#383939" points="148.13,304.0498,138.2812,304.0639,143.5639,306.087,141.5407,311.3697,148.13,304.0498" style="stroke:#383939;stroke-width:1;"/><text fill="#676869" font-family="Lato" font-size="11" lengthAdjust="spacing" textLength="63.5259" x="54.7504" y="413.0569">shift + re-run</text><text fill="#676869" font-family="Lato" font-size="11" lengthAdjust="spacing" textLength="86.2468" x="43.39" y="426.2571">(force recompute)</text></g><!--link NotRun to Excluded--><g class="link" data-entity-1="ent0003" data-entity-2="ent0015" data-link-type="dependency" data-source-line="10" id="lnk16"><path d="M336.03,177.0398 C344.99,185.4598 353.57,195.7198 358.39,207.1998 C366.08,225.5298 364.5679,242.3223 360.1979,259.1523" fill="none" id="NotRun-to-Excluded" style="stroke:#383939;stroke-width:1;"/><polygon fill="#383939" points="358.69,264.9598,364.8235,257.2539,359.9466,260.1202,357.0803,255.2433,358.69,264.9598" style="stroke:#383939;stroke-width:1;"/><text fill="#676869" font-family="Lato" font-size="11" lengthAdjust="spacing" textLength="64.34" x="364.7635" y="219.0569">weight = 0 or</text><text fill="#676869" font-family="Lato" font-size="11" lengthAdjust="spacing" textLength="65.627" x="364.12" y="232.2571">"Do Not Use"</text></g><!--link Excluded to NotRun--><g class="link" data-entity-1="ent0015" data-entity-2="ent0003" data-link-type="dependency" data-source-line="11" id="lnk17"><path d="M317.76,264.7098 C309.16,256.3898 301,246.3498 296.39,235.1998 C288.79,216.8498 290.0889,200.0815 294.1589,183.2615" fill="none" id="Excluded-to-NotRun" style="stroke:#383939;stroke-width:1;"/><polygon fill="#383939" points="295.57,177.4298,289.5655,185.2366,294.3941,182.2895,297.3411,187.1181,295.57,177.4298" style="stroke:#383939;stroke-width:1;"/><text fill="#676869" font-family="Lato" font-size="11" lengthAdjust="spacing" textLength="52.0363" x="297.39" y="225.5569">re-enabled</text></g><!--link Completed to *end*--><g class="link" data-entity-1="ent0009" data-entity-2="ent0018" data-link-type="dependency" data-source-line="12" id="lnk19"><path d="M48.39,565.6598 C48.39,585.2398 48.39,605.6898 48.39,619.9998" fill="none" id="Completed-to-*end*" style="stroke:#383939;stroke-width:1;"/><polygon fill="#383939" points="48.39,625.9998,52.39,616.9998,48.39,620.9998,44.39,616.9998,48.39,625.9998" style="stroke:#383939;stroke-width:1;"/></g><?plantuml-src NP2_JiGm38VtF8MvwG2LOqQ2XJyZ4gTZuXX2wbwjfZ5o71rYuY5uGfw4D5SePOfZVx8-_uueE9zgXCwAyhizezHxewGUOIE8G8ezx5cwnlCUebfD4Ru-Fak9q5lNKa3pTF8CLNK5zwph5CpXAPs7X0bhk0393Uizh4erx3NZRC0o7YZiCgSsTX0zApHPmFmC1kYQ-rUFMjPDJiavn3hEo3jBlc0emW9YAM9jnkvS2wliOwRLisbigL4u7QbjM3Oi3lFNPJuf7lyzzVQjP5dia7QjmYMS0yisB6vuY0OU8oxCBpO5Tl30O5-otp-N7Eqt?></g></svg>
